<mxfile host="Electron" modified="2025-08-11T10:57:26.811Z" agent="Mozilla/5.0 (Windows NT 10.0; Win64; x64) AppleWebKit/537.36 (KHTML, like Gecko) draw.io/24.2.5 Chrome/120.0.6099.109 Electron/28.1.0 Safari/537.36" etag="y5jvlKE_2gvznarg52Ez" version="24.2.5" type="device">
  <diagram id="C5RBs43oDa-KdzZeNtuy" name="Page-1">
    <mxGraphModel dx="887" dy="478" grid="1" gridSize="10" guides="1" tooltips="1" connect="1" arrows="1" fold="1" page="1" pageScale="1" pageWidth="1169" pageHeight="827" math="0" shadow="0">
      <root>
        <mxCell id="WIyWlLk6GJQsqaUBKTNV-0" />
        <mxCell id="WIyWlLk6GJQsqaUBKTNV-1" parent="WIyWlLk6GJQsqaUBKTNV-0" />
        <mxCell id="x-4x_s3Mr5ZDVSFkf_7P-37" value="Steady" style="shape=umlLifeline;perimeter=lifelinePerimeter;whiteSpace=wrap;html=1;container=1;dropTarget=0;collapsible=0;recursiveResize=0;outlineConnect=0;portConstraint=eastwest;newEdgeStyle={&quot;curved&quot;:0,&quot;rounded&quot;:0};" vertex="1" parent="WIyWlLk6GJQsqaUBKTNV-1">
          <mxGeometry x="226" y="15" width="100" height="545" as="geometry" />
        </mxCell>
        <mxCell id="x-4x_s3Mr5ZDVSFkf_7P-38" value="FWD&amp;amp;BWD" style="shape=umlLifeline;perimeter=lifelinePerimeter;whiteSpace=wrap;html=1;container=1;dropTarget=0;collapsible=0;recursiveResize=0;outlineConnect=0;portConstraint=eastwest;newEdgeStyle={&quot;curved&quot;:0,&quot;rounded&quot;:0};" vertex="1" parent="WIyWlLk6GJQsqaUBKTNV-1">
          <mxGeometry x="596" y="15" width="100" height="805" as="geometry" />
        </mxCell>
        <mxCell id="x-4x_s3Mr5ZDVSFkf_7P-74" value="" style="html=1;points=[[0,0,0,0,5],[0,1,0,0,-5],[1,0,0,0,5],[1,1,0,0,-5]];perimeter=orthogonalPerimeter;outlineConnect=0;targetShapes=umlLifeline;portConstraint=eastwest;newEdgeStyle={&quot;curved&quot;:0,&quot;rounded&quot;:0};" vertex="1" parent="x-4x_s3Mr5ZDVSFkf_7P-38">
          <mxGeometry x="45" y="152" width="10" height="50" as="geometry" />
        </mxCell>
        <mxCell id="x-4x_s3Mr5ZDVSFkf_7P-81" value="" style="html=1;points=[[0,0,0,0,5],[0,1,0,0,-5],[1,0,0,0,5],[1,1,0,0,-5]];perimeter=orthogonalPerimeter;outlineConnect=0;targetShapes=umlLifeline;portConstraint=eastwest;newEdgeStyle={&quot;curved&quot;:0,&quot;rounded&quot;:0};" vertex="1" parent="x-4x_s3Mr5ZDVSFkf_7P-38">
          <mxGeometry x="45" y="295" width="10" height="65" as="geometry" />
        </mxCell>
        <mxCell id="x-4x_s3Mr5ZDVSFkf_7P-93" value="" style="html=1;points=[[0,0,0,0,5],[0,1,0,0,-5],[1,0,0,0,5],[1,1,0,0,-5]];perimeter=orthogonalPerimeter;outlineConnect=0;targetShapes=umlLifeline;portConstraint=eastwest;newEdgeStyle={&quot;curved&quot;:0,&quot;rounded&quot;:0};" vertex="1" parent="x-4x_s3Mr5ZDVSFkf_7P-38">
          <mxGeometry x="45" y="474" width="10" height="52" as="geometry" />
        </mxCell>
        <mxCell id="x-4x_s3Mr5ZDVSFkf_7P-99" value="" style="html=1;points=[[0,0,0,0,5],[0,1,0,0,-5],[1,0,0,0,5],[1,1,0,0,-5]];perimeter=orthogonalPerimeter;outlineConnect=0;targetShapes=umlLifeline;portConstraint=eastwest;newEdgeStyle={&quot;curved&quot;:0,&quot;rounded&quot;:0};" vertex="1" parent="x-4x_s3Mr5ZDVSFkf_7P-38">
          <mxGeometry x="45" y="618" width="10" height="65" as="geometry" />
        </mxCell>
        <mxCell id="x-4x_s3Mr5ZDVSFkf_7P-106" value="" style="html=1;points=[[0,0,0,0,5],[0,1,0,0,-5],[1,0,0,0,5],[1,1,0,0,-5]];perimeter=orthogonalPerimeter;outlineConnect=0;targetShapes=umlLifeline;portConstraint=eastwest;newEdgeStyle={&quot;curved&quot;:0,&quot;rounded&quot;:0};" vertex="1" parent="x-4x_s3Mr5ZDVSFkf_7P-38">
          <mxGeometry x="46" y="723" width="10" height="80" as="geometry" />
        </mxCell>
        <mxCell id="x-4x_s3Mr5ZDVSFkf_7P-40" value="wait and&amp;nbsp;&lt;span style=&quot;color: rgb(255, 0, 0); background-color: initial;&quot;&gt;prefetch&lt;/span&gt;" style="shape=umlLifeline;perimeter=lifelinePerimeter;whiteSpace=wrap;html=1;container=1;dropTarget=0;collapsible=0;recursiveResize=0;outlineConnect=0;portConstraint=eastwest;newEdgeStyle={&quot;curved&quot;:0,&quot;rounded&quot;:0};" vertex="1" parent="WIyWlLk6GJQsqaUBKTNV-1">
          <mxGeometry x="406" y="15" width="136" height="555" as="geometry" />
        </mxCell>
        <mxCell id="x-4x_s3Mr5ZDVSFkf_7P-41" value="" style="html=1;points=[[0,0,0,0,5],[0,1,0,0,-5],[1,0,0,0,5],[1,1,0,0,-5]];perimeter=orthogonalPerimeter;outlineConnect=0;targetShapes=umlLifeline;portConstraint=eastwest;newEdgeStyle={&quot;curved&quot;:0,&quot;rounded&quot;:0};" vertex="1" parent="x-4x_s3Mr5ZDVSFkf_7P-40">
          <mxGeometry x="63" y="88" width="10" height="52" as="geometry" />
        </mxCell>
        <mxCell id="x-4x_s3Mr5ZDVSFkf_7P-86" value="" style="html=1;points=[[0,0,0,0,5],[0,1,0,0,-5],[1,0,0,0,5],[1,1,0,0,-5]];perimeter=orthogonalPerimeter;outlineConnect=0;targetShapes=umlLifeline;portConstraint=eastwest;newEdgeStyle={&quot;curved&quot;:0,&quot;rounded&quot;:0};" vertex="1" parent="x-4x_s3Mr5ZDVSFkf_7P-40">
          <mxGeometry x="63" y="395" width="10" height="55" as="geometry" />
        </mxCell>
        <mxCell id="x-4x_s3Mr5ZDVSFkf_7P-46" value="&lt;div style=&quot;color: rgb(204, 204, 204); background-color: rgb(31, 31, 31); font-family: Consolas, &amp;quot;Courier New&amp;quot;, monospace; font-size: 14px; line-height: 19px; white-space-collapse: preserve;&quot;&gt;&lt;span style=&quot;color: #9cdcfe;&quot;&gt;recv_prev_wait_handles&lt;/span&gt;&lt;/div&gt;" style="html=1;verticalAlign=bottom;endArrow=block;curved=0;rounded=0;" edge="1" parent="WIyWlLk6GJQsqaUBKTNV-1">
          <mxGeometry x="0.0005" width="80" relative="1" as="geometry">
            <mxPoint x="276" y="113" as="sourcePoint" />
            <mxPoint x="469" y="113" as="targetPoint" />
            <mxPoint as="offset" />
          </mxGeometry>
        </mxCell>
        <mxCell id="x-4x_s3Mr5ZDVSFkf_7P-49" value="&lt;font color=&quot;#ff0000&quot;&gt;pop(0).wait&lt;/font&gt;" style="text;html=1;align=center;verticalAlign=middle;whiteSpace=wrap;rounded=0;" vertex="1" parent="WIyWlLk6GJQsqaUBKTNV-1">
          <mxGeometry x="336" y="119" width="60" height="20" as="geometry" />
        </mxCell>
        <mxCell id="x-4x_s3Mr5ZDVSFkf_7P-52" value="send data" style="shape=umlLifeline;perimeter=lifelinePerimeter;whiteSpace=wrap;html=1;container=1;dropTarget=0;collapsible=0;recursiveResize=0;outlineConnect=0;portConstraint=eastwest;newEdgeStyle={&quot;curved&quot;:0,&quot;rounded&quot;:0};" vertex="1" parent="WIyWlLk6GJQsqaUBKTNV-1">
          <mxGeometry x="818" y="15" width="100" height="805" as="geometry" />
        </mxCell>
        <mxCell id="x-4x_s3Mr5ZDVSFkf_7P-77" value="" style="html=1;points=[[0,0,0,0,5],[0,1,0,0,-5],[1,0,0,0,5],[1,1,0,0,-5]];perimeter=orthogonalPerimeter;outlineConnect=0;targetShapes=umlLifeline;portConstraint=eastwest;newEdgeStyle={&quot;curved&quot;:0,&quot;rounded&quot;:0};" vertex="1" parent="x-4x_s3Mr5ZDVSFkf_7P-52">
          <mxGeometry x="45" y="225" width="10" height="50" as="geometry" />
        </mxCell>
        <mxCell id="x-4x_s3Mr5ZDVSFkf_7P-83" value="" style="html=1;points=[[0,0,0,0,5],[0,1,0,0,-5],[1,0,0,0,5],[1,1,0,0,-5]];perimeter=orthogonalPerimeter;outlineConnect=0;targetShapes=umlLifeline;portConstraint=eastwest;newEdgeStyle={&quot;curved&quot;:0,&quot;rounded&quot;:0};" vertex="1" parent="x-4x_s3Mr5ZDVSFkf_7P-52">
          <mxGeometry x="45" y="325" width="10" height="85" as="geometry" />
        </mxCell>
        <mxCell id="x-4x_s3Mr5ZDVSFkf_7P-84" value="self call" style="html=1;align=left;spacingLeft=2;endArrow=block;rounded=0;edgeStyle=orthogonalEdgeStyle;curved=0;rounded=0;" edge="1" target="x-4x_s3Mr5ZDVSFkf_7P-83" parent="x-4x_s3Mr5ZDVSFkf_7P-52">
          <mxGeometry relative="1" as="geometry">
            <mxPoint x="55" y="275" as="sourcePoint" />
            <Array as="points">
              <mxPoint x="85" y="275" />
              <mxPoint x="85" y="335" />
            </Array>
          </mxGeometry>
        </mxCell>
        <mxCell id="x-4x_s3Mr5ZDVSFkf_7P-96" value="" style="html=1;points=[[0,0,0,0,5],[0,1,0,0,-5],[1,0,0,0,5],[1,1,0,0,-5]];perimeter=orthogonalPerimeter;outlineConnect=0;targetShapes=umlLifeline;portConstraint=eastwest;newEdgeStyle={&quot;curved&quot;:0,&quot;rounded&quot;:0};" vertex="1" parent="x-4x_s3Mr5ZDVSFkf_7P-52">
          <mxGeometry x="45" y="550" width="10" height="50" as="geometry" />
        </mxCell>
        <mxCell id="x-4x_s3Mr5ZDVSFkf_7P-103" value="" style="html=1;points=[[0,0,0,0,5],[0,1,0,0,-5],[1,0,0,0,5],[1,1,0,0,-5]];perimeter=orthogonalPerimeter;outlineConnect=0;targetShapes=umlLifeline;portConstraint=eastwest;newEdgeStyle={&quot;curved&quot;:0,&quot;rounded&quot;:0};" vertex="1" parent="x-4x_s3Mr5ZDVSFkf_7P-52">
          <mxGeometry x="45" y="645" width="10" height="75" as="geometry" />
        </mxCell>
        <mxCell id="x-4x_s3Mr5ZDVSFkf_7P-104" value="self call" style="html=1;align=left;spacingLeft=2;endArrow=block;rounded=0;edgeStyle=orthogonalEdgeStyle;curved=0;rounded=0;" edge="1" target="x-4x_s3Mr5ZDVSFkf_7P-103" parent="x-4x_s3Mr5ZDVSFkf_7P-52">
          <mxGeometry relative="1" as="geometry">
            <mxPoint x="49" y="601" as="sourcePoint" />
            <Array as="points">
              <mxPoint x="79" y="601" />
              <mxPoint x="79" y="655" />
            </Array>
          </mxGeometry>
        </mxCell>
        <mxCell id="x-4x_s3Mr5ZDVSFkf_7P-76" value="&lt;div style=&quot;color: rgb(204, 204, 204); background-color: rgb(31, 31, 31); font-family: Consolas, &amp;quot;Courier New&amp;quot;, monospace; font-size: 14px; line-height: 19px; white-space-collapse: preserve;&quot;&gt;&lt;span style=&quot;color: #dcdcaa;&quot;&gt;forward_step_helper&lt;/span&gt;&lt;/div&gt;" style="html=1;verticalAlign=bottom;endArrow=block;curved=0;rounded=0;" edge="1" parent="WIyWlLk6GJQsqaUBKTNV-1" target="x-4x_s3Mr5ZDVSFkf_7P-74">
          <mxGeometry width="80" relative="1" as="geometry">
            <mxPoint x="476" y="180" as="sourcePoint" />
            <mxPoint x="556" y="180" as="targetPoint" />
          </mxGeometry>
        </mxCell>
        <mxCell id="x-4x_s3Mr5ZDVSFkf_7P-80" value="&lt;div style=&quot;color: rgb(204, 204, 204); background-color: rgb(31, 31, 31); font-family: Consolas, &amp;quot;Courier New&amp;quot;, monospace; font-size: 14px; line-height: 19px; white-space-collapse: preserve;&quot;&gt;&lt;span style=&quot;color: #dcdcaa;&quot;&gt;send_forward_recv_forward&lt;/span&gt;&lt;/div&gt;" style="html=1;verticalAlign=bottom;endArrow=block;curved=0;rounded=0;entryX=0;entryY=0;entryDx=0;entryDy=5;entryPerimeter=0;" edge="1" parent="WIyWlLk6GJQsqaUBKTNV-1" source="x-4x_s3Mr5ZDVSFkf_7P-38" target="x-4x_s3Mr5ZDVSFkf_7P-77">
          <mxGeometry width="80" relative="1" as="geometry">
            <mxPoint x="638.8103448275863" y="244" as="sourcePoint" />
            <mxPoint x="766" y="250" as="targetPoint" />
          </mxGeometry>
        </mxCell>
        <mxCell id="x-4x_s3Mr5ZDVSFkf_7P-82" value="&lt;div style=&quot;color: rgb(204, 204, 204); background-color: rgb(31, 31, 31); font-family: Consolas, &amp;quot;Courier New&amp;quot;, monospace; font-size: 13px; line-height: 126%; white-space-collapse: preserve;&quot;&gt;&lt;span style=&quot;color: #9cdcfe;&quot;&gt;send_next_wait_handle&lt;/span&gt;.wait()&lt;/div&gt;" style="html=1;verticalAlign=bottom;endArrow=block;curved=0;rounded=0;entryX=1;entryY=0;entryDx=0;entryDy=5;entryPerimeter=0;" edge="1" parent="WIyWlLk6GJQsqaUBKTNV-1" source="x-4x_s3Mr5ZDVSFkf_7P-52" target="x-4x_s3Mr5ZDVSFkf_7P-81">
          <mxGeometry width="80" relative="1" as="geometry">
            <mxPoint x="706" y="340" as="sourcePoint" />
            <mxPoint x="786" y="340" as="targetPoint" />
          </mxGeometry>
        </mxCell>
        <mxCell id="x-4x_s3Mr5ZDVSFkf_7P-85" value="&lt;div style=&quot;color: rgb(204, 204, 204); background-color: rgb(31, 31, 31); font-family: Consolas, &amp;quot;Courier New&amp;quot;, monospace; font-weight: normal; line-height: 19px; white-space: pre;&quot;&gt;&lt;div style=&quot;&quot;&gt;&lt;span style=&quot;color: rgb(156, 220, 254);&quot;&gt;&lt;font style=&quot;font-size: 12px;&quot;&gt;send_next_wait_handle = &quot;send_next&quot; &lt;/font&gt;&lt;/span&gt;&lt;/div&gt;&lt;div style=&quot;&quot;&gt;&lt;span style=&quot;color: rgb(156, 220, 254);&quot;&gt;recv_prev_wait_handles.append(&lt;/span&gt;&lt;span style=&quot;color: rgb(156, 220, 254);&quot;&gt;&quot;recv_prev&quot;)&lt;/span&gt;&lt;br&gt;&lt;/div&gt;&lt;/div&gt;" style="text;whiteSpace=wrap;html=1;" vertex="1" parent="WIyWlLk6GJQsqaUBKTNV-1">
          <mxGeometry x="876" y="360" width="240" height="50" as="geometry" />
        </mxCell>
        <mxCell id="x-4x_s3Mr5ZDVSFkf_7P-87" value="&lt;div style=&quot;color: rgb(204, 204, 204); background-color: rgb(31, 31, 31); font-family: Consolas, &amp;quot;Courier New&amp;quot;, monospace; font-size: 14px; line-height: 19px; white-space-collapse: preserve;&quot;&gt;&lt;span style=&quot;color: #9cdcfe;&quot;&gt;recv_next_wait_handles&lt;/span&gt;&lt;/div&gt;" style="html=1;verticalAlign=bottom;endArrow=block;curved=0;rounded=0;entryX=0;entryY=0;entryDx=0;entryDy=5;" edge="1" target="x-4x_s3Mr5ZDVSFkf_7P-86" parent="WIyWlLk6GJQsqaUBKTNV-1" source="x-4x_s3Mr5ZDVSFkf_7P-37">
          <mxGeometry relative="1" as="geometry">
            <mxPoint x="399" y="415" as="sourcePoint" />
          </mxGeometry>
        </mxCell>
        <mxCell id="x-4x_s3Mr5ZDVSFkf_7P-89" value="&lt;font color=&quot;#ff0000&quot;&gt;pop(0).wait&lt;/font&gt;" style="text;html=1;align=center;verticalAlign=middle;whiteSpace=wrap;rounded=0;" vertex="1" parent="WIyWlLk6GJQsqaUBKTNV-1">
          <mxGeometry x="356" y="430" width="60" height="20" as="geometry" />
        </mxCell>
        <mxCell id="x-4x_s3Mr5ZDVSFkf_7P-90" value="&lt;div style=&quot;background-color: rgb(31, 31, 31); font-family: Consolas, &amp;quot;Courier New&amp;quot;, monospace; font-weight: normal; font-size: 14px; line-height: 19px; white-space: pre;&quot;&gt;&lt;div style=&quot;&quot;&gt;&lt;font color=&quot;#ff0000&quot;&gt;Backward:&amp;nbsp;&lt;/font&gt;&lt;/div&gt;&lt;div style=&quot;color: rgb(204, 204, 204);&quot;&gt;&lt;span style=&quot;color: #cccccc;&quot;&gt;step: &lt;/span&gt;&lt;span style=&quot;color: #9cdcfe;&quot;&gt;backward_k&lt;/span&gt;&lt;span style=&quot;color: #cccccc;&quot;&gt; &lt;/span&gt;&lt;span style=&quot;color: #d4d4d4;&quot;&gt;=&lt;/span&gt;&lt;span style=&quot;color: #cccccc;&quot;&gt; &lt;/span&gt;&lt;span style=&quot;color: #9cdcfe;&quot;&gt;k&lt;/span&gt;&lt;/div&gt;&lt;/div&gt;" style="text;whiteSpace=wrap;html=1;" vertex="1" parent="WIyWlLk6GJQsqaUBKTNV-1">
          <mxGeometry x="75" y="390" width="160" height="40" as="geometry" />
        </mxCell>
        <mxCell id="x-4x_s3Mr5ZDVSFkf_7P-92" value="&lt;div style=&quot;background-color: rgb(31, 31, 31); font-family: Consolas, &amp;quot;Courier New&amp;quot;, monospace; font-weight: normal; font-size: 14px; line-height: 19px; white-space: pre;&quot;&gt;&lt;div style=&quot;&quot;&gt;&lt;font color=&quot;#ff0000&quot;&gt;Forward:&lt;/font&gt;&lt;span style=&quot;color: rgb(156, 220, 254);&quot;&gt; forward_k&lt;/span&gt;&lt;span style=&quot;color: rgb(204, 204, 204);&quot;&gt; &lt;/span&gt;&lt;span style=&quot;color: rgb(212, 212, 212);&quot;&gt;=&lt;/span&gt;&lt;span style=&quot;color: rgb(204, 204, 204);&quot;&gt; &lt;/span&gt;&lt;/div&gt;&lt;div style=&quot;color: rgb(204, 204, 204);&quot;&gt;&lt;span style=&quot;color: #9cdcfe;&quot;&gt;  k&lt;/span&gt;&lt;span style=&quot;color: #cccccc;&quot;&gt; &lt;/span&gt;&lt;span style=&quot;color: #d4d4d4;&quot;&gt;+&lt;/span&gt;&lt;span style=&quot;color: #cccccc;&quot;&gt; &lt;/span&gt;&lt;span style=&quot;color: #9cdcfe;&quot;&gt;num_warmup_microbatches&lt;/span&gt;&lt;/div&gt;&lt;/div&gt;" style="text;whiteSpace=wrap;html=1;" vertex="1" parent="WIyWlLk6GJQsqaUBKTNV-1">
          <mxGeometry x="40" y="68" width="230" height="51" as="geometry" />
        </mxCell>
        <mxCell id="x-4x_s3Mr5ZDVSFkf_7P-94" value="&lt;div style=&quot;color: rgb(204, 204, 204); background-color: rgb(31, 31, 31); font-family: Consolas, &amp;quot;Courier New&amp;quot;, monospace; font-size: 14px; line-height: 19px; white-space-collapse: preserve;&quot;&gt;&lt;span style=&quot;color: #dcdcaa;&quot;&gt;backward_step_helper&lt;/span&gt;&lt;/div&gt;" style="html=1;verticalAlign=bottom;endArrow=block;curved=0;rounded=0;entryX=0;entryY=0;entryDx=0;entryDy=5;" edge="1" target="x-4x_s3Mr5ZDVSFkf_7P-93" parent="WIyWlLk6GJQsqaUBKTNV-1">
          <mxGeometry relative="1" as="geometry">
            <mxPoint x="473.4473684210525" y="494" as="sourcePoint" />
          </mxGeometry>
        </mxCell>
        <mxCell id="x-4x_s3Mr5ZDVSFkf_7P-97" value="&lt;div style=&quot;color: rgb(204, 204, 204); background-color: rgb(31, 31, 31); font-family: Consolas, &amp;quot;Courier New&amp;quot;, monospace; font-size: 14px; line-height: 19px; white-space-collapse: preserve;&quot;&gt;&lt;span style=&quot;color: #dcdcaa;&quot;&gt;send_backward_recv_backward&lt;/span&gt;&lt;/div&gt;" style="html=1;verticalAlign=bottom;endArrow=block;curved=0;rounded=0;entryX=0;entryY=0;entryDx=0;entryDy=5;" edge="1" target="x-4x_s3Mr5ZDVSFkf_7P-96" parent="WIyWlLk6GJQsqaUBKTNV-1">
          <mxGeometry x="-0.0075" relative="1" as="geometry">
            <mxPoint x="645.4473684210527" y="570" as="sourcePoint" />
            <mxPoint as="offset" />
          </mxGeometry>
        </mxCell>
        <mxCell id="x-4x_s3Mr5ZDVSFkf_7P-100" value="&lt;div style=&quot;color: rgb(204, 204, 204); background-color: rgb(31, 31, 31); font-family: Consolas, &amp;quot;Courier New&amp;quot;, monospace; line-height: 19px; white-space-collapse: preserve;&quot;&gt;&lt;span style=&quot;color: rgb(156, 220, 254);&quot;&gt;&lt;font style=&quot;font-size: 13px;&quot;&gt;send_prev_wait_handle.wait()&lt;/font&gt;&lt;/span&gt;&lt;/div&gt;" style="html=1;verticalAlign=bottom;endArrow=block;curved=0;rounded=0;entryX=1;entryY=0;entryDx=0;entryDy=5;entryPerimeter=0;" edge="1" parent="WIyWlLk6GJQsqaUBKTNV-1" target="x-4x_s3Mr5ZDVSFkf_7P-99">
          <mxGeometry width="80" relative="1" as="geometry">
            <mxPoint x="867.5" y="638" as="sourcePoint" />
            <mxPoint x="800" y="722" as="targetPoint" />
          </mxGeometry>
        </mxCell>
        <mxCell id="x-4x_s3Mr5ZDVSFkf_7P-105" value="&lt;div style=&quot;color: rgb(204, 204, 204); background-color: rgb(31, 31, 31); font-family: Consolas, &amp;quot;Courier New&amp;quot;, monospace; font-weight: normal; line-height: 19px; white-space: pre;&quot;&gt;&lt;div style=&quot;&quot;&gt;&lt;span style=&quot;color: rgb(156, 220, 254);&quot;&gt;&lt;font style=&quot;font-size: 12px;&quot;&gt;send_prev_wait_handle = &quot;send_prev&quot; &lt;/font&gt;&lt;/span&gt;&lt;/div&gt;&lt;div style=&quot;&quot;&gt;&lt;span style=&quot;color: rgb(156, 220, 254);&quot;&gt;recv_next_wait_handles.append(&lt;/span&gt;&lt;span style=&quot;color: rgb(156, 220, 254);&quot;&gt;&quot;recv_next)&quot;&lt;/span&gt;&lt;br&gt;&lt;/div&gt;&lt;/div&gt;" style="text;whiteSpace=wrap;html=1;" vertex="1" parent="WIyWlLk6GJQsqaUBKTNV-1">
          <mxGeometry x="876" y="680" width="240" height="50" as="geometry" />
        </mxCell>
        <mxCell id="x-4x_s3Mr5ZDVSFkf_7P-107" value="&lt;div style=&quot;color: rgb(204, 204, 204); background-color: rgb(31, 31, 31); font-family: Consolas, &amp;quot;Courier New&amp;quot;, monospace; font-size: 14px; line-height: 19px; white-space-collapse: preserve;&quot;&gt;&lt;span style=&quot;color: #9cdcfe;&quot;&gt;input_tensors&lt;/span&gt;&lt;/div&gt;&lt;div style=&quot;color: rgb(204, 204, 204); background-color: rgb(31, 31, 31); font-family: Consolas, &amp;quot;Courier New&amp;quot;, monospace; font-size: 14px; line-height: 19px; white-space-collapse: preserve;&quot;&gt;&lt;div style=&quot;line-height: 19px;&quot;&gt;&lt;span style=&quot;color: #9cdcfe;&quot;&gt;output_tensor_grads&lt;/span&gt;&lt;/div&gt;&lt;/div&gt;" style="html=1;verticalAlign=bottom;endArrow=block;curved=0;rounded=0;entryX=1;entryY=0;entryDx=0;entryDy=5;entryPerimeter=0;" edge="1" parent="WIyWlLk6GJQsqaUBKTNV-1" target="x-4x_s3Mr5ZDVSFkf_7P-106">
          <mxGeometry x="-0.0023" width="80" relative="1" as="geometry">
            <mxPoint x="867.5" y="743" as="sourcePoint" />
            <mxPoint x="750" y="808" as="targetPoint" />
            <mxPoint as="offset" />
          </mxGeometry>
        </mxCell>
        <mxCell id="x-4x_s3Mr5ZDVSFkf_7P-108" value="&lt;div style=&quot;color: rgb(204, 204, 204); background-color: rgb(31, 31, 31); font-family: Consolas, &amp;quot;Courier New&amp;quot;, monospace; font-size: 14px; line-height: 19px; white-space: pre;&quot;&gt;&lt;span style=&quot;color: #9cdcfe;&quot;&gt;fwd_recv_buffer[.]=none&lt;/span&gt;&lt;/div&gt;&lt;div style=&quot;color: rgb(204, 204, 204); background-color: rgb(31, 31, 31); font-family: Consolas, &amp;quot;Courier New&amp;quot;, monospace; font-size: 14px; line-height: 19px; white-space: pre;&quot;&gt;&lt;div style=&quot;line-height: 19px;&quot;&gt;&lt;span style=&quot;color: #9cdcfe;&quot;&gt;bwd_recv_buffer[.]=none&lt;/span&gt;&lt;/div&gt;&lt;/div&gt;" style="text;html=1;align=center;verticalAlign=middle;whiteSpace=wrap;rounded=0;" vertex="1" parent="WIyWlLk6GJQsqaUBKTNV-1">
          <mxGeometry x="680" y="760" width="160" height="50" as="geometry" />
        </mxCell>
      </root>
    </mxGraphModel>
  </diagram>
</mxfile>
